<?xml version="1.0" standalone="no"?><!-- Generator: Gravit.io --><svg xmlns="http://www.w3.org/2000/svg" xmlns:xlink="http://www.w3.org/1999/xlink" style="isolation:isolate" viewBox="0 0 130 100" width="130" height="100"><defs><clipPath id="_clipPath_Q17AAHLDAk7cKSNNpJxkJkB3jP3TODBT"><rect width="130" height="100"/></clipPath></defs><g clip-path="url(#_clipPath_Q17AAHLDAk7cKSNNpJxkJkB3jP3TODBT)"><path d=" M 40.242 13.825 L 40.242 13.825 Q 66 13.825 66 41.511 L 66 41.511 L 66 80.733 L 66 80.733 Q 66 83.329 64.522 84.915 L 64.522 84.915 L 64.522 84.915 Q 63.044 86.501 60.511 86.501 L 60.511 86.501 L 60.511 86.501 Q 57.977 86.501 56.429 84.915 L 56.429 84.915 L 56.429 84.915 Q 54.88 83.329 54.88 80.733 L 54.88 80.733 L 54.88 73.812 L 54.88 73.812 Q 52.206 80.012 46.717 83.401 L 46.717 83.401 L 46.717 83.401 Q 41.227 86.789 34.049 86.789 L 34.049 86.789 L 34.049 86.789 Q 27.433 86.789 21.873 84.05 L 21.873 84.05 L 21.873 84.05 Q 16.313 81.31 13.076 76.407 L 13.076 76.407 L 13.076 76.407 Q 9.839 71.504 9.839 65.592 L 9.839 65.592 L 9.839 65.592 Q 9.839 57.661 13.78 53.263 L 13.78 53.263 L 13.78 53.263 Q 17.721 48.865 26.729 46.919 L 26.729 46.919 L 26.729 46.919 Q 35.738 44.972 51.784 44.972 L 51.784 44.972 L 54.88 44.972 L 54.88 40.213 L 54.88 40.213 Q 54.88 31.562 51.432 27.524 L 51.432 27.524 L 51.432 27.524 Q 47.983 23.487 40.242 23.487 L 40.242 23.487 L 40.242 23.487 Q 30.67 23.487 20.818 28.822 L 20.818 28.822 L 20.818 28.822 Q 17.017 31.273 15.469 31.273 L 15.469 31.273 L 15.469 31.273 Q 13.78 31.273 12.654 29.975 L 12.654 29.975 L 12.654 29.975 Q 11.528 28.678 11.528 26.659 L 11.528 26.659 L 11.528 26.659 Q 11.528 24.64 12.724 23.126 L 12.724 23.126 L 12.724 23.126 Q 13.92 21.612 16.595 20.026 L 16.595 20.026 L 16.595 20.026 Q 21.521 17.142 27.785 15.484 L 27.785 15.484 L 27.785 15.484 Q 34.049 13.825 40.242 13.825 L 40.242 13.825 Z  M 35.597 77.561 L 35.597 77.561 Q 44.042 77.561 49.461 71.721 L 49.461 71.721 L 49.461 71.721 Q 54.88 65.881 54.88 56.652 L 54.88 56.652 L 54.88 52.47 L 52.347 52.47 L 52.347 52.47 Q 39.96 52.47 33.485 53.552 L 33.485 53.552 L 33.485 53.552 Q 27.011 54.633 24.266 57.157 L 24.266 57.157 L 24.266 57.157 Q 21.521 59.68 21.521 64.583 L 21.521 64.583 L 21.521 64.583 Q 21.521 70.207 25.533 73.884 L 25.533 73.884 L 25.533 73.884 Q 29.544 77.561 35.597 77.561 L 35.597 77.561 Z " fill-rule="evenodd" fill="rgb(0,0,0)"/><path d=" M 75.889 35.561 L 75.889 24.848 L 75.889 14.136 C 75.889 8.547 80.091 5.722 85.266 7.833 L 101.442 14.429 L 117.619 21.025 C 122.794 23.135 122.794 26.562 117.619 28.672 L 101.442 35.268 L 85.266 41.864 C 80.091 43.974 75.889 41.15 75.889 35.561 Z " fill="rgb(139,97,176)"/><path d=" M 75.889 86.91 L 75.889 76.197 L 75.889 65.485 C 75.889 59.896 80.091 57.071 85.266 59.182 L 101.442 65.778 L 117.619 72.374 C 122.794 74.484 122.794 77.91 117.619 80.021 L 101.442 86.617 L 85.266 93.213 C 80.091 95.323 75.889 92.499 75.889 86.91 Z " fill="rgb(139,97,176)"/><path d=" M 74.5 60.02 L 74.5 49.307 L 74.5 38.595 C 74.5 33.006 78.702 30.181 83.877 32.292 L 100.053 38.888 L 116.229 45.484 C 121.405 47.594 121.405 51.021 116.229 53.131 L 100.053 59.727 L 83.877 66.323 C 78.702 68.433 74.5 65.609 74.5 60.02 Z " fill="rgb(139,97,176)" vector-effect="non-scaling-stroke" stroke-width="3" stroke="rgb(255,255,255)" stroke-linejoin="miter" stroke-linecap="square" stroke-miterlimit="3"/></g></svg>