<?xml version="1.0" standalone="no"?><!-- Generator: Gravit.io --><svg xmlns="http://www.w3.org/2000/svg" xmlns:xlink="http://www.w3.org/1999/xlink" style="isolation:isolate" viewBox="0 0 1050 315" width="1050" height="315"><defs><clipPath id="_clipPath_ehJ3bvXl4Gx6pT87ETFFVVKs1k2Z6EG0"><rect width="1050" height="315"/></clipPath></defs><g clip-path="url(#_clipPath_ehJ3bvXl4Gx6pT87ETFFVVKs1k2Z6EG0)"><path d=" M 902.888 118.397 L 902.888 82.716 L 902.888 47.035 C 902.888 31.562 914.52 23.743 928.848 29.585 L 981.018 50.858 L 1033.187 72.131 C 1047.515 77.973 1047.515 87.459 1033.187 93.301 L 981.018 114.574 L 928.848 135.847 C 914.52 141.689 902.888 133.87 902.888 118.397 Z " fill="rgb(139,97,176)"/><path d=" M 902.888 275.397 L 902.888 239.716 L 902.888 204.035 C 902.888 188.562 914.52 180.743 928.848 186.585 L 981.018 207.858 L 1033.187 229.131 C 1047.515 234.973 1047.515 244.459 1033.187 250.301 L 981.018 271.574 L 928.848 292.847 C 914.52 298.689 902.888 290.87 902.888 275.397 Z " fill="rgb(139,97,176)"/><path d=" M 898.64 193.181 L 898.64 157.5 L 898.64 121.819 C 898.64 106.346 910.273 98.527 924.6 104.369 L 976.77 125.642 L 1028.939 146.915 C 1043.267 152.757 1043.267 162.243 1028.939 168.085 L 976.77 189.358 L 924.6 210.631 C 910.273 216.473 898.64 208.654 898.64 193.181 Z " fill="rgb(139,97,176)" vector-effect="non-scaling-stroke" stroke-width="6" stroke="rgb(255,255,255)" stroke-linejoin="miter" stroke-linecap="square" stroke-miterlimit="3"/><path d=" M 519.415 235.692 L 519.415 235.692 Q 514.25 235.692 510.95 232.605 L 510.95 232.605 L 510.95 232.605 Q 507.649 229.518 507.649 223.933 L 507.649 223.933 L 507.649 37.25 L 507.649 37.25 Q 507.649 31.664 510.95 28.577 L 510.95 28.577 L 510.95 28.577 Q 514.25 25.49 519.415 25.49 L 519.415 25.49 L 519.415 25.49 Q 524.294 25.49 527.594 28.577 L 527.594 28.577 L 527.594 28.577 Q 530.894 31.664 530.894 37.25 L 530.894 37.25 L 530.894 223.933 L 530.894 223.933 Q 530.894 229.518 527.594 232.605 L 527.594 232.605 L 527.594 232.605 Q 524.294 235.692 519.415 235.692 L 519.415 235.692 L 519.415 235.692 Z  M 585.992 235.692 L 585.992 235.692 Q 580.827 235.692 577.527 232.605 L 577.527 232.605 L 577.527 232.605 Q 574.226 229.518 574.226 223.933 L 574.226 223.933 L 574.226 99.87 L 574.226 99.87 Q 574.226 94.284 577.527 91.197 L 577.527 91.197 L 577.527 91.197 Q 580.827 88.11 585.992 88.11 L 585.992 88.11 L 585.992 88.11 Q 591.158 88.11 594.314 91.197 L 594.314 91.197 L 594.314 91.197 Q 597.471 94.284 597.471 99.87 L 597.471 99.87 L 597.471 223.933 L 597.471 223.933 Q 597.471 229.812 594.314 232.752 L 594.314 232.752 L 594.314 232.752 Q 591.158 235.692 585.992 235.692 L 585.992 235.692 L 585.992 235.692 Z  M 585.992 57.241 L 585.992 57.241 Q 579.105 57.241 574.8 53.125 L 574.8 53.125 L 574.8 53.125 Q 570.496 49.01 570.496 42.248 L 570.496 42.248 L 570.496 42.248 Q 570.496 35.78 574.8 31.664 L 574.8 31.664 L 574.8 31.664 Q 579.105 27.548 585.992 27.548 L 585.992 27.548 L 585.992 27.548 Q 592.879 27.548 597.184 31.664 L 597.184 31.664 L 597.184 31.664 Q 601.488 35.78 601.488 42.248 L 601.488 42.248 L 601.488 42.248 Q 601.488 49.01 597.184 53.125 L 597.184 53.125 L 597.184 53.125 Q 592.879 57.241 585.992 57.241 L 585.992 57.241 L 585.992 57.241 Z  M 698.484 236.28 L 698.484 236.28 Q 678.97 236.28 663.904 227.166 L 663.904 227.166 L 663.904 227.166 Q 648.838 218.053 640.66 201.295 L 640.66 201.295 L 640.66 201.295 Q 632.481 184.538 632.481 162.489 L 632.481 162.489 L 632.481 162.489 Q 632.481 140.44 640.947 123.389 L 640.947 123.389 L 640.947 123.389 Q 649.412 106.337 664.622 96.93 L 664.622 96.93 L 664.622 96.93 Q 679.831 87.522 699.632 87.522 L 699.632 87.522 L 699.632 87.522 Q 710.537 87.522 721.298 90.609 L 721.298 90.609 L 721.298 90.609 Q 732.06 93.696 740.095 99.576 L 740.095 99.576 L 740.095 99.576 Q 745.26 103.103 747.413 106.484 L 747.413 106.484 L 747.413 106.484 Q 749.565 109.865 749.565 113.981 L 749.565 113.981 L 749.565 113.981 Q 749.565 118.097 747.413 120.743 L 747.413 120.743 L 747.413 120.743 Q 745.26 123.389 741.817 123.389 L 741.817 123.389 L 741.817 123.389 Q 739.808 123.389 737.512 122.213 L 737.512 122.213 L 737.512 122.213 Q 735.216 121.037 733.638 119.861 L 733.638 119.861 L 733.638 119.861 Q 732.06 118.685 731.486 118.391 L 731.486 118.391 L 731.486 118.391 Q 724.025 113.393 717.281 110.453 L 717.281 110.453 L 717.281 110.453 Q 710.537 107.513 700.78 107.513 L 700.78 107.513 L 700.78 107.513 Q 679.831 107.513 668.209 122.066 L 668.209 122.066 L 668.209 122.066 Q 656.587 136.618 656.587 162.489 L 656.587 162.489 L 656.587 162.489 Q 656.587 188.36 668.209 202.471 L 668.209 202.471 L 668.209 202.471 Q 679.831 216.583 700.78 216.583 L 700.78 216.583 L 700.78 216.583 Q 710.537 216.583 717.568 213.643 L 717.568 213.643 L 717.568 213.643 Q 724.598 210.703 731.773 205.705 L 731.773 205.705 L 731.773 205.705 Q 734.929 203.647 737.799 202.177 L 737.799 202.177 L 737.799 202.177 Q 740.669 200.707 742.678 200.707 L 742.678 200.707 L 742.678 200.707 Q 745.834 200.707 747.987 203.353 L 747.987 203.353 L 747.987 203.353 Q 750.139 205.999 750.139 210.115 L 750.139 210.115 L 750.139 210.115 Q 750.139 213.937 748.13 217.024 L 748.13 217.024 L 748.13 217.024 Q 746.121 220.111 740.669 223.933 L 740.669 223.933 L 740.669 223.933 Q 732.634 229.518 721.298 232.899 L 721.298 232.899 L 721.298 232.899 Q 709.963 236.28 698.484 236.28 L 698.484 236.28 L 698.484 236.28 Z  M 835.369 87.522 L 835.369 87.522 Q 887.884 87.522 887.884 143.968 L 887.884 143.968 L 887.884 223.933 L 887.884 223.933 Q 887.884 229.224 884.871 232.458 L 884.871 232.458 L 884.871 232.458 Q 881.858 235.692 876.692 235.692 L 876.692 235.692 L 876.692 235.692 Q 871.527 235.692 868.37 232.458 L 868.37 232.458 L 868.37 232.458 Q 865.214 229.224 865.214 223.933 L 865.214 223.933 L 865.214 209.821 L 865.214 209.821 Q 859.761 222.463 848.569 229.371 L 848.569 229.371 L 848.569 229.371 Q 837.378 236.28 822.742 236.28 L 822.742 236.28 L 822.742 236.28 Q 809.255 236.28 797.919 230.694 L 797.919 230.694 L 797.919 230.694 Q 786.584 225.109 779.984 215.113 L 779.984 215.113 L 779.984 215.113 Q 773.383 205.117 773.383 193.064 L 773.383 193.064 L 773.383 193.064 Q 773.383 176.894 781.418 167.928 L 781.418 167.928 L 781.418 167.928 Q 789.454 158.961 807.82 154.992 L 807.82 154.992 L 807.82 154.992 Q 826.186 151.023 858.9 151.023 L 858.9 151.023 L 865.214 151.023 L 865.214 141.322 L 865.214 141.322 Q 865.214 123.683 858.183 115.451 L 858.183 115.451 L 858.183 115.451 Q 851.152 107.219 835.369 107.219 L 835.369 107.219 L 835.369 107.219 Q 815.855 107.219 795.767 118.097 L 795.767 118.097 L 795.767 118.097 Q 788.019 123.095 784.862 123.095 L 784.862 123.095 L 784.862 123.095 Q 781.418 123.095 779.123 120.449 L 779.123 120.449 L 779.123 120.449 Q 776.827 117.803 776.827 113.687 L 776.827 113.687 L 776.827 113.687 Q 776.827 109.571 779.266 106.484 L 779.266 106.484 L 779.266 106.484 Q 781.705 103.397 787.158 100.163 L 787.158 100.163 L 787.158 100.163 Q 797.202 94.284 809.972 90.903 L 809.972 90.903 L 809.972 90.903 Q 822.742 87.522 835.369 87.522 L 835.369 87.522 L 835.369 87.522 Z  M 825.899 217.465 L 825.899 217.465 Q 843.117 217.465 854.165 205.558 L 854.165 205.558 L 854.165 205.558 Q 865.214 193.652 865.214 174.837 L 865.214 174.837 L 865.214 166.311 L 860.048 166.311 L 860.048 166.311 Q 834.795 166.311 821.594 168.516 L 821.594 168.516 L 821.594 168.516 Q 808.394 170.721 802.798 175.865 L 802.798 175.865 L 802.798 175.865 Q 797.202 181.01 797.202 191.006 L 797.202 191.006 L 797.202 191.006 Q 797.202 202.471 805.38 209.968 L 805.38 209.968 L 805.38 209.968 Q 813.559 217.465 825.899 217.465 L 825.899 217.465 L 825.899 217.465 Z " fill-rule="evenodd" fill="rgb(0,0,0)"/><path d=" M 243.924 87.522 L 243.924 87.522 Q 262.29 87.522 276.352 96.93 L 276.352 96.93 L 276.352 96.93 Q 290.413 106.337 298.162 123.242 L 298.162 123.242 L 298.162 123.242 Q 305.91 140.146 305.91 162.489 L 305.91 162.489 L 305.91 162.489 Q 305.91 184.832 298.162 201.442 L 298.162 201.442 L 298.162 201.442 Q 290.413 218.053 276.495 227.166 L 276.495 227.166 L 276.495 227.166 Q 262.577 236.28 243.924 236.28 L 243.924 236.28 L 243.924 236.28 Q 227.567 236.28 215.371 228.93 L 215.371 228.93 L 215.371 228.93 Q 203.175 221.581 196.861 208.057 L 196.861 208.057 L 196.861 277.144 L 196.861 277.144 Q 196.861 282.436 193.848 285.523 L 193.848 285.523 L 193.848 285.523 Q 190.835 288.61 185.382 288.61 L 185.382 288.61 L 185.382 288.61 Q 179.93 288.61 176.773 285.376 L 176.773 285.376 L 176.773 285.376 Q 173.617 282.142 173.617 277.144 L 173.617 277.144 L 173.617 99.87 L 173.617 99.87 Q 173.617 94.578 176.773 91.344 L 176.773 91.344 L 176.773 91.344 Q 179.93 88.11 185.382 88.11 L 185.382 88.11 L 185.382 88.11 Q 190.835 88.11 193.848 91.344 L 193.848 91.344 L 193.848 91.344 Q 196.861 94.578 196.861 99.87 L 196.861 99.87 L 196.861 115.745 L 196.861 115.745 Q 203.175 102.221 215.371 94.872 L 215.371 94.872 L 215.371 94.872 Q 227.567 87.522 243.924 87.522 L 243.924 87.522 L 243.924 87.522 Z  M 239.333 216.583 L 239.333 216.583 Q 259.708 216.583 270.899 202.471 L 270.899 202.471 L 270.899 202.471 Q 282.091 188.36 282.091 162.489 L 282.091 162.489 L 282.091 162.489 Q 282.091 136.618 270.899 122.066 L 270.899 122.066 L 270.899 122.066 Q 259.708 107.513 239.333 107.513 L 239.333 107.513 L 239.333 107.513 Q 218.958 107.513 207.91 121.625 L 207.91 121.625 L 207.91 121.625 Q 196.861 135.736 196.861 161.901 L 196.861 161.901 L 196.861 161.901 Q 196.861 188.066 207.91 202.324 L 207.91 202.324 L 207.91 202.324 Q 218.958 216.583 239.333 216.583 L 239.333 216.583 L 239.333 216.583 Z  M 410.941 87.522 L 410.941 87.522 Q 429.307 87.522 443.368 96.93 L 443.368 96.93 L 443.368 96.93 Q 457.43 106.337 465.178 123.242 L 465.178 123.242 L 465.178 123.242 Q 472.926 140.146 472.926 162.489 L 472.926 162.489 L 472.926 162.489 Q 472.926 184.832 465.178 201.442 L 465.178 201.442 L 465.178 201.442 Q 457.43 218.053 443.512 227.166 L 443.512 227.166 L 443.512 227.166 Q 429.594 236.28 410.941 236.28 L 410.941 236.28 L 410.941 236.28 Q 394.583 236.28 382.387 228.93 L 382.387 228.93 L 382.387 228.93 Q 370.191 221.581 363.878 208.057 L 363.878 208.057 L 363.878 277.144 L 363.878 277.144 Q 363.878 282.436 360.864 285.523 L 360.864 285.523 L 360.864 285.523 Q 357.851 288.61 352.399 288.61 L 352.399 288.61 L 352.399 288.61 Q 346.946 288.61 343.79 285.376 L 343.79 285.376 L 343.79 285.376 Q 340.633 282.142 340.633 277.144 L 340.633 277.144 L 340.633 99.87 L 340.633 99.87 Q 340.633 94.578 343.79 91.344 L 343.79 91.344 L 343.79 91.344 Q 346.946 88.11 352.399 88.11 L 352.399 88.11 L 352.399 88.11 Q 357.851 88.11 360.864 91.344 L 360.864 91.344 L 360.864 91.344 Q 363.878 94.578 363.878 99.87 L 363.878 99.87 L 363.878 115.745 L 363.878 115.745 Q 370.191 102.221 382.387 94.872 L 382.387 94.872 L 382.387 94.872 Q 394.583 87.522 410.941 87.522 L 410.941 87.522 L 410.941 87.522 Z  M 406.349 216.583 L 406.349 216.583 Q 426.724 216.583 437.916 202.471 L 437.916 202.471 L 437.916 202.471 Q 449.108 188.36 449.108 162.489 L 449.108 162.489 L 449.108 162.489 Q 449.108 136.618 437.916 122.066 L 437.916 122.066 L 437.916 122.066 Q 426.724 107.513 406.349 107.513 L 406.349 107.513 L 406.349 107.513 Q 385.974 107.513 374.926 121.625 L 374.926 121.625 L 374.926 121.625 Q 363.878 135.736 363.878 161.901 L 363.878 161.901 L 363.878 161.901 Q 363.878 188.066 374.926 202.324 L 374.926 202.324 L 374.926 202.324 Q 385.974 216.583 406.349 216.583 L 406.349 216.583 L 406.349 216.583 Z " fill-rule="evenodd" fill="rgb(139,97,176)"/><path d=" M 78.63 87.522 L 78.63 87.522 Q 131.145 87.522 131.145 143.968 L 131.145 143.968 L 131.145 223.933 L 131.145 223.933 Q 131.145 229.224 128.132 232.458 L 128.132 232.458 L 128.132 232.458 Q 125.119 235.692 119.953 235.692 L 119.953 235.692 L 119.953 235.692 Q 114.788 235.692 111.631 232.458 L 111.631 232.458 L 111.631 232.458 Q 108.475 229.224 108.475 223.933 L 108.475 223.933 L 108.475 209.821 L 108.475 209.821 Q 103.022 222.463 91.83 229.371 L 91.83 229.371 L 91.83 229.371 Q 80.638 236.28 66.003 236.28 L 66.003 236.28 L 66.003 236.28 Q 52.515 236.28 41.18 230.694 L 41.18 230.694 L 41.18 230.694 Q 29.845 225.109 23.245 215.113 L 23.245 215.113 L 23.245 215.113 Q 16.644 205.117 16.644 193.064 L 16.644 193.064 L 16.644 193.064 Q 16.644 176.894 24.679 167.928 L 24.679 167.928 L 24.679 167.928 Q 32.715 158.961 51.081 154.992 L 51.081 154.992 L 51.081 154.992 Q 69.447 151.023 102.161 151.023 L 102.161 151.023 L 108.475 151.023 L 108.475 141.322 L 108.475 141.322 Q 108.475 123.683 101.444 115.451 L 101.444 115.451 L 101.444 115.451 Q 94.413 107.219 78.63 107.219 L 78.63 107.219 L 78.63 107.219 Q 59.116 107.219 39.028 118.097 L 39.028 118.097 L 39.028 118.097 Q 31.28 123.095 28.123 123.095 L 28.123 123.095 L 28.123 123.095 Q 24.679 123.095 22.384 120.449 L 22.384 120.449 L 22.384 120.449 Q 20.088 117.803 20.088 113.687 L 20.088 113.687 L 20.088 113.687 Q 20.088 109.571 22.527 106.484 L 22.527 106.484 L 22.527 106.484 Q 24.966 103.397 30.419 100.163 L 30.419 100.163 L 30.419 100.163 Q 40.463 94.284 53.233 90.903 L 53.233 90.903 L 53.233 90.903 Q 66.003 87.522 78.63 87.522 L 78.63 87.522 L 78.63 87.522 Z  M 69.16 217.465 L 69.16 217.465 Q 86.378 217.465 97.426 205.558 L 97.426 205.558 L 97.426 205.558 Q 108.475 193.652 108.475 174.837 L 108.475 174.837 L 108.475 166.311 L 103.309 166.311 L 103.309 166.311 Q 78.056 166.311 64.855 168.516 L 64.855 168.516 L 64.855 168.516 Q 51.655 170.721 46.059 175.865 L 46.059 175.865 L 46.059 175.865 Q 40.463 181.01 40.463 191.006 L 40.463 191.006 L 40.463 191.006 Q 40.463 202.471 48.641 209.968 L 48.641 209.968 L 48.641 209.968 Q 56.82 217.465 69.16 217.465 L 69.16 217.465 L 69.16 217.465 Z " fill-rule="evenodd" fill="rgb(0,0,0)"/></g></svg>